<svg id="Layer_1" data-name="Layer 1" xmlns="http://www.w3.org/2000/svg" xmlns:xlink="http://www.w3.org/1999/xlink" viewBox="0 0 93.85 93.85">
<defs>
<style>
.cls-1,.cls-2{opacity:0.2;}.cls-1{fill:url(#linear-gradient);}.cls-2{fill:url(#linear-gradient-2);}.cls-3{fill:url(#linear-gradient-3);}
</style>
<linearGradient id="linear-gradient" x1="19.9" y1="46.93" x2="80.93" y2="46.93" gradientUnits="userSpaceOnUse">
<stop offset="0" stop-color="#7734ff"/>
<stop offset="0.99" stop-color="#1e8aff"/>
</linearGradient>
<linearGradient id="linear-gradient-2" x1="12.92" y1="46.93" x2="73.96" y2="46.93" xlink:href="#linear-gradient"/>
<linearGradient id="linear-gradient-3" x1="19.77" y1="46.92" x2="73.94" y2="46.92" xlink:href="#linear-gradient"/>
</defs>
<path class="cls-1" d="M73.56,31.2a20,20,0,0,0-2.83-2L50.51,17.58A22,22,0,0,0,48,16.36c-.36-.16-.73-.3-1.09-.43A20.44,20.44,0,0,0,20.29,31.2a.78.78,0,0,0,0,.21,20.93,20.93,0,0,0-.35,3.84V58.6a20.93,20.93,0,0,0,.35,3.84.85.85,0,0,0,0,.22A20.43,20.43,0,0,0,46.93,77.92c.29-.1.58-.23.88-.35l.15,0a19.23,19.23,0,0,0,2.55-1.23L70.73,64.61a20.8,20.8,0,0,0,2.83-2A20.47,20.47,0,0,0,73.56,31.2ZM49.8,39l9.05,5.22a2.8,2.8,0,0,1,0,4.83L49.8,54.23l-9.06,5.23a2.77,2.77,0,0,1-4.16-2.4V36.15a2.78,2.78,0,0,1,4.16-2.42Z"/>
<path class="cls-2" d="M73.94,34.69a19.24,19.24,0,0,0-.27-2.85,3.57,3.57,0,0,0-.11-.64A20.43,20.43,0,0,0,46.93,15.93a4.59,4.59,0,0,0-.7.27c-.43.16-.85.34-1.28.54s-1.07.54-1.61.84L23.12,29.24a18.24,18.24,0,0,0-1.66,1.08,8.66,8.66,0,0,0-.74.54s0,.05-.07.07a4.22,4.22,0,0,0-.36.27,20.47,20.47,0,0,0,0,31.46c.13.09.23.19.36.27a.16.16,0,0,0,.07.07c.29.21.57.43.86.61a15.6,15.6,0,0,0,1.54,1L43.34,76.29a18.82,18.82,0,0,0,1.79.91,9.68,9.68,0,0,0,.94.42h0a5.53,5.53,0,0,0,.83.3A20.42,20.42,0,0,0,73.56,62.66c0-.22.09-.42.11-.61a19.52,19.52,0,0,0,.27-2.89,5.24,5.24,0,0,0,0-.56V35.25A5.24,5.24,0,0,0,73.94,34.69ZM40.74,59.46a2.77,2.77,0,0,1-4.16-2.4V36.15a2.78,2.78,0,0,1,4.16-2.42L49.8,39l9.05,5.22a2.8,2.8,0,0,1,0,4.83L49.8,54.23Z"/>
<path class="cls-3" d="M73.67,31.84a2.9,2.9,0,0,0-1.27-1.43l-24-13.87L48,16.36a2.83,2.83,0,0,0-1.79-.16,2.76,2.76,0,0,0-.92.34l-.36.2L21.46,30.32l-.15.09a2.8,2.8,0,0,0-.59.45s0,.05-.07.07a2,2,0,0,0-.4.48,3.19,3.19,0,0,0-.48,1.67V60.79a3.15,3.15,0,0,0,.48,1.65,2.32,2.32,0,0,0,.4.49.16.16,0,0,0,.07.07,2.3,2.3,0,0,0,.59.46l.27.15L45.13,77.2l.18.11a3.91,3.91,0,0,0,.76.31h0a3,3,0,0,0,2.3-.31l24-13.85a3.26,3.26,0,0,0,1.27-1.41,3.07,3.07,0,0,0,.27-1.26V33.08A2.91,2.91,0,0,0,73.67,31.84ZM58.85,49,49.8,54.23l-9.06,5.23a2.77,2.77,0,0,1-4.16-2.4V36.15a2.78,2.78,0,0,1,4.16-2.42L49.8,39l9.05,5.22A2.8,2.8,0,0,1,58.85,49Z"/>
</svg>